<svg width="716" height="716" viewBox="0 0 716 716" fill="none" xmlns="http://www.w3.org/2000/svg">
<mask id="mask0_1_3" style="mask-type:alpha" maskUnits="userSpaceOnUse" x="44" y="44" width="628" height="630">
<path d="M232.253 651.202L520.89 673.353C532.814 673.371 544.575 670.586 555.224 665.222C565.874 659.859 575.113 652.067 582.197 642.476L653.35 546.263C665.88 529.035 670.803 507.331 666.551 486.522L655.252 429.175L629.185 410.447L621.689 350.035L637.262 337.885L636.569 334.372C632.989 316.025 622.92 299.691 607.929 288.503L523.127 213.1L469.875 114.65L404.988 111.07L291.77 69.8995L142.753 227.42L106.729 308.193L100.911 321.171L63.7687 389.862C59.965 396.575 64.2163 458.777 62.8738 466.385C62.8738 466.385 218.38 651.202 232.253 651.202Z" fill="#9B9B9B"/>
<path d="M447.5 226.077L356.881 475.334L574.143 535.747L655.364 429.018L637.24 337.952L447.5 226.077Z" fill="#E6E6E6"/>
<path d="M56.1613 411.566L44.75 494.577H111.875L129.551 424.543C132.46 412.013 140.291 401.497 151.255 394.784L246.125 337.952L177.881 188.935L147.004 222.721C144.095 225.853 141.858 229.433 140.068 233.461L100.911 321.395L63.7687 390.086C59.965 396.798 57.5037 403.958 56.1613 411.566Z" fill="#636363"/>
<path d="M257.536 461.238L358 561.702L574.142 535.747L406.778 459.672C392.01 452.96 384.402 436.178 389.101 420.516L447.5 226.077L469.875 114.65C451.08 84.667 442.354 76.1645 410.134 65.6483C388.654 58.0408 370.083 51.552 370.083 51.552C370.083 51.552 358 46.4058 345.022 45.0632C328.689 43.7207 318.173 46.6295 304.3 57.1458L246.125 337.952V433.717C246.125 444.01 250.153 453.855 257.536 461.238Z" fill="white"/>
<path d="M44.75 494.577H111.875L358 561.702V673.353L262.906 673.577C237.175 673.577 211.891 667.76 188.845 656.125L158.191 640.91C142.351 633.027 127.913 622.595 115.455 610.032L94.6463 589.223C76.5098 571.157 62.868 549.084 54.8188 524.783L44.75 494.577Z" fill="#636363"/>
<path d="M670.802 512.701C673.487 527.468 669.46 542.683 659.391 554.095L570.562 655.23C561.389 665.746 544.384 673.353 530.511 673.577H358V561.702L574.142 535.747L655.14 429.018L670.802 512.701ZM391.786 99.2108L366.95 64.082C363.37 59.0303 358.72 54.8299 353.331 51.7797C347.943 48.7294 341.948 46.9044 335.774 46.4344C329.6 45.9644 323.398 46.861 317.61 49.0604C311.822 51.2598 306.59 54.708 302.286 59.1595L151.031 216.679C136.487 231.895 139.172 256.731 156.625 268.366L246.125 337.952L349.721 243.753C362.027 232.566 370.978 218.246 375.676 202.136L396.932 129.417C399.841 119.124 398.051 107.937 391.786 99.2108Z" fill="#9B9B9B"/>
</mask>
<g mask="url(#mask0_1_3)">
<g filter="url(#filter0_f_1_3)">
<rect x="-161" y="-68" width="1052" height="898" fill="#00FFCC"/>
<ellipse cx="231.5" cy="201.5" rx="257.5" ry="307.5" fill="#0B17FF"/>
<ellipse cx="797.5" cy="705" rx="619.5" ry="154" fill="#480BFF"/>
<path d="M573.5 -22L637.823 179.767H845.978L677.577 304.466L741.9 506.233L573.5 381.534L405.1 506.233L469.423 304.466L301.022 179.767H509.177L573.5 -22Z" fill="#00C8FF"/>
</g>
<g filter="url(#filter1_f_1_3)">
<rect x="-161" y="-68" width="1052" height="898" fill="#00FFCC"/>
<ellipse cx="231.5" cy="201.5" rx="257.5" ry="307.5" fill="#0B17FF"/>
<ellipse cx="797.5" cy="705" rx="619.5" ry="154" fill="#480BFF"/>
<path d="M573.5 -22L637.823 179.767H845.978L677.577 304.466L741.9 506.233L573.5 381.534L405.1 506.233L469.423 304.466L301.022 179.767H509.177L573.5 -22Z" fill="#00C8FF"/>
</g>
<g opacity="0.56">
<path d="M232.253 651.202L520.89 673.353C532.814 673.371 544.575 670.586 555.224 665.222C565.874 659.859 575.113 652.067 582.197 642.476L653.35 546.263C665.88 529.035 670.803 507.331 666.551 486.522L655.252 429.175L629.185 410.447L621.689 350.035L637.262 337.885L636.569 334.372C632.989 316.025 622.92 299.691 607.929 288.503L523.127 213.1L469.875 114.65L404.988 111.07L291.77 69.8995L142.753 227.42L106.729 308.193L100.911 321.171L63.7687 389.862C59.965 396.575 64.2163 458.777 62.8738 466.385C62.8738 466.385 218.38 651.202 232.253 651.202Z" fill="#9B9B9B"/>
<path d="M447.5 226.077L356.881 475.334L574.143 535.747L655.364 429.018L637.24 337.952L447.5 226.077Z" fill="#E6E6E6"/>
<path d="M56.1613 411.566L44.75 494.577H111.875L129.551 424.543C132.46 412.013 140.291 401.497 151.255 394.784L246.125 337.952L177.881 188.935L147.004 222.721C144.095 225.853 141.858 229.433 140.068 233.461L100.911 321.395L63.7687 390.086C59.965 396.798 57.5037 403.958 56.1613 411.566Z" fill="#636363"/>
<path d="M257.536 461.238L358 561.702L574.142 535.747L406.778 459.672C392.01 452.96 384.402 436.178 389.101 420.516L447.5 226.077L469.875 114.65C451.08 84.667 442.354 76.1645 410.134 65.6483C388.654 58.0408 370.083 51.552 370.083 51.552C370.083 51.552 358 46.4058 345.022 45.0632C328.689 43.7207 318.173 46.6295 304.3 57.1458L246.125 337.952V433.717C246.125 444.01 250.153 453.855 257.536 461.238Z" fill="white"/>
<path d="M44.75 494.577H111.875L358 561.702V673.353L262.906 673.577C237.175 673.577 211.891 667.76 188.845 656.125L158.191 640.91C142.351 633.027 127.913 622.595 115.455 610.032L94.6463 589.223C76.5098 571.157 62.868 549.084 54.8188 524.783L44.75 494.577Z" fill="#636363"/>
<path d="M670.802 512.701C673.487 527.468 669.46 542.683 659.391 554.095L570.562 655.23C561.389 665.746 544.384 673.353 530.511 673.577H358V561.702L574.142 535.747L655.14 429.018L670.802 512.701ZM391.786 99.2108L366.95 64.082C363.37 59.0303 358.72 54.8299 353.331 51.7797C347.943 48.7294 341.948 46.9044 335.774 46.4344C329.6 45.9644 323.398 46.861 317.61 49.0604C311.822 51.2598 306.59 54.708 302.286 59.1595L151.031 216.679C136.487 231.895 139.172 256.731 156.625 268.366L246.125 337.952L349.721 243.753C362.027 232.566 370.978 218.246 375.676 202.136L396.932 129.417C399.841 119.124 398.051 107.937 391.786 99.2108Z" fill="#9B9B9B"/>
</g>
</g>
<defs>
<filter id="filter0_f_1_3" x="-361" y="-306" width="1978" height="1365" filterUnits="userSpaceOnUse" color-interpolation-filters="sRGB">
<feFlood flood-opacity="0" result="BackgroundImageFix"/>
<feBlend mode="normal" in="SourceGraphic" in2="BackgroundImageFix" result="shape"/>
<feGaussianBlur stdDeviation="100" result="effect1_foregroundBlur_1_3"/>
</filter>
<filter id="filter1_f_1_3" x="-361" y="-306" width="1978" height="1365" filterUnits="userSpaceOnUse" color-interpolation-filters="sRGB">
<feFlood flood-opacity="0" result="BackgroundImageFix"/>
<feBlend mode="normal" in="SourceGraphic" in2="BackgroundImageFix" result="shape"/>
<feGaussianBlur stdDeviation="100" result="effect1_foregroundBlur_1_3"/>
</filter>
</defs>
</svg>
